<?xml version='1.0' encoding='iso-8859-1'?>
<svg version="1.1" xmlns="http://www.w3.org/2000/svg" viewBox="0 0 41.841 41.841" xmlns:xlink="http://www.w3.org/1999/xlink" enable-background="new 0 0 41.841 41.841">
  <g>
    <g>
      <g>
        <path fill="#26261F" fill-rule="evenodd" d="m8.467,0c-2.211,0-4.002,1.79-4.002,3.999 0,2.21 1.791,4.001 4.002,4.001 2.21,0 4.002-1.791 4.002-4.001-1.77636e-15-2.209-1.792-3.999-4.002-3.999zm0,4.998c-0.551,0-0.998-0.447-0.998-0.999 0-0.553 0.447-1.001 0.998-1.001 0.553,0 1.001,0.448 1.001,1.001 0,0.552-0.448,0.999-1.001,0.999zm26.18,25.453c-0.371,2.974-1.359,5.212-2.967,6.706-1.613,1.497-3.889,2.242-6.824,2.242-3.049,0-5.495-1.177-7.336-3.524-1.844-2.353-2.768-5.392-2.768-9.123v-5.713c0-3.683 0.924-6.702 2.768-9.061 1.841-2.358 4.287-3.539 7.336-3.539 2.936,0 5.207,0.767 6.811,2.298 1.602,1.531 2.598,3.741 2.98,6.628h2.68l.049-.144c-0.307-3.557-1.539-6.317-3.709-8.279-2.174-1.962-5.11-2.942-8.811-2.942-3.879,0-7.006,1.407-9.383,4.221-2.377,2.816-3.566,6.441-3.566,10.875v5.673c0,4.447 1.189,8.072 3.566,10.873 2.377,2.799 5.504,4.199 9.383,4.199 3.668,0 6.6-1.002 8.785-3.004 2.188-2.002 3.428-4.748 3.734-8.243l-.049-.142h-2.679z"/>
      </g>
    </g>
  </g>
</svg>
